<mxfile host="65bd71144e">
    <diagram id="DEgkDfvTKu7yBRl0ZWRp" name="Page-1">
        <mxGraphModel dx="3263" dy="1609" grid="1" gridSize="10" guides="1" tooltips="1" connect="1" arrows="1" fold="1" page="0" pageScale="1" pageWidth="850" pageHeight="1100" math="0" shadow="0">
            <root>
                <mxCell id="0"/>
                <mxCell id="1" parent="0"/>
                <mxCell id="9" value="&amp;lt;&amp;lt;Device&amp;gt;&amp;gt;" style="verticalAlign=top;align=left;shape=cube;size=10;direction=south;fontStyle=0;html=1;boundedLbl=1;spacingLeft=5;" vertex="1" parent="1">
                    <mxGeometry x="490" y="360" width="550" height="390" as="geometry"/>
                </mxCell>
                <mxCell id="10" value="&amp;lt;&amp;lt;OS&amp;gt;&amp;gt;" style="verticalAlign=top;align=center;shape=cube;size=10;direction=south;html=1;boundedLbl=1;spacingLeft=5;" vertex="1" parent="9">
                    <mxGeometry width="500" height="310" relative="1" as="geometry">
                        <mxPoint x="20" y="70" as="offset"/>
                    </mxGeometry>
                </mxCell>
                <mxCell id="12" value="&amp;lt;&amp;lt;Execution enviroment&amp;gt;&amp;gt;" style="verticalAlign=top;align=center;shape=cube;size=10;direction=south;html=1;boundedLbl=1;spacingLeft=5;" vertex="1" parent="9">
                    <mxGeometry x="50" y="130" width="440" height="240" as="geometry"/>
                </mxCell>
                <mxCell id="18" value="&lt;b&gt;PersonajesAPI&lt;/b&gt;" style="verticalAlign=top;align=center;shape=cube;size=10;direction=south;html=1;boundedLbl=1;spacingLeft=5;" vertex="1" parent="9">
                    <mxGeometry x="60" y="170" width="400" height="190" as="geometry"/>
                </mxCell>
                <mxCell id="22" value="Repository" style="shape=module;align=left;spacingLeft=20;align=center;verticalAlign=top;" vertex="1" parent="9">
                    <mxGeometry x="90" y="210" width="100" height="50" as="geometry"/>
                </mxCell>
                <mxCell id="23" value="Service" style="shape=module;align=left;spacingLeft=20;align=center;verticalAlign=top;" vertex="1" parent="9">
                    <mxGeometry x="210" y="210" width="100" height="50" as="geometry"/>
                </mxCell>
                <mxCell id="20" value="Controller" style="shape=module;align=left;spacingLeft=20;align=center;verticalAlign=top;" vertex="1" parent="9">
                    <mxGeometry x="330" y="210" width="100" height="50" as="geometry"/>
                </mxCell>
                <mxCell id="19" value="DTO" style="shape=module;align=left;spacingLeft=20;align=center;verticalAlign=top;" vertex="1" parent="9">
                    <mxGeometry x="270" y="280" width="100" height="50" as="geometry"/>
                </mxCell>
                <mxCell id="21" value="Mapper" style="shape=module;align=left;spacingLeft=20;align=center;verticalAlign=top;" vertex="1" parent="9">
                    <mxGeometry x="140" y="280" width="100" height="50" as="geometry"/>
                </mxCell>
                <mxCell id="13" value=":DB server" style="verticalAlign=top;align=left;shape=cube;size=10;direction=south;fontStyle=0;html=1;boundedLbl=1;spacingLeft=5;" vertex="1" parent="1">
                    <mxGeometry x="1360" y="520" width="300" height="165" as="geometry"/>
                </mxCell>
                <mxCell id="16" value="Mongo db" style="shape=module;align=left;spacingLeft=20;align=center;verticalAlign=top;" vertex="1" parent="1">
                    <mxGeometry x="1440" y="585" width="129.5" height="47.5" as="geometry"/>
                </mxCell>
                <mxCell id="25" style="edgeStyle=none;html=1;entryX=0;entryY=0;entryDx=87.5;entryDy=300;entryPerimeter=0;endArrow=none;endFill=0;" edge="1" parent="1" source="12" target="13">
                    <mxGeometry relative="1" as="geometry"/>
                </mxCell>
                <mxCell id="26" value="MongoDB driver" style="edgeLabel;html=1;align=center;verticalAlign=middle;resizable=0;points=[];" vertex="1" connectable="0" parent="25">
                    <mxGeometry x="0.0817" relative="1" as="geometry">
                        <mxPoint as="offset"/>
                    </mxGeometry>
                </mxCell>
                <mxCell id="27" value="&amp;lt;&amp;lt;Device&amp;gt;&amp;gt;&lt;br&gt;:UserClient" style="verticalAlign=top;align=left;shape=cube;size=10;direction=south;fontStyle=0;html=1;boundedLbl=1;spacingLeft=5;" vertex="1" parent="1">
                    <mxGeometry x="-50" y="495" width="280" height="195" as="geometry"/>
                </mxCell>
                <mxCell id="28" value="&amp;lt;&amp;lt;Web browswer&amp;gt;&amp;gt;&lt;br&gt;:Browser" style="verticalAlign=top;align=center;shape=cube;size=10;direction=south;html=1;boundedLbl=1;spacingLeft=5;" vertex="1" parent="27">
                    <mxGeometry width="240" height="130" relative="1" as="geometry">
                        <mxPoint x="10" y="50" as="offset"/>
                    </mxGeometry>
                </mxCell>
                <mxCell id="29" style="edgeStyle=none;html=1;endArrow=none;endFill=0;" edge="1" parent="27" source="28" target="12">
                    <mxGeometry relative="1" as="geometry"/>
                </mxCell>
                <mxCell id="30" value="&amp;lt;&amp;lt;Protocol&amp;gt;&amp;gt;&lt;br&gt;HTTP" style="edgeLabel;html=1;align=center;verticalAlign=middle;resizable=0;points=[];" vertex="1" connectable="0" parent="29">
                    <mxGeometry x="-0.0471" y="-1" relative="1" as="geometry">
                        <mxPoint as="offset"/>
                    </mxGeometry>
                </mxCell>
                <mxCell id="31" value="&amp;lt;&amp;lt;artifact&amp;gt;&amp;gt;&lt;br&gt;&lt;br&gt;&lt;b&gt;Curl Localhost:8080&lt;/b&gt;" style="html=1;align=center;verticalAlign=middle;dashed=0;rounded=1;" vertex="1" parent="27">
                    <mxGeometry x="40" y="105" width="180" height="60" as="geometry"/>
                </mxCell>
            </root>
        </mxGraphModel>
    </diagram>
</mxfile>